<svg width="32" height="32" viewBox="0 0 32 32" fill="none" xmlns="http://www.w3.org/2000/svg">
  <rect width="32" height="32" rx="8" fill="url(#gradient)"/>
  <path d="M16 8C12.6863 8 10 10.6863 10 14C10 17.3137 12.6863 20 16 20C19.3137 20 22 17.3137 22 14C22 10.6863 19.3137 8 16 8Z" fill="white" opacity="0.9"/>
  <circle cx="14" cy="13" r="1.5" fill="#3B82F6"/>
  <circle cx="18" cy="13" r="1.5" fill="#3B82F6"/>
  <path d="M14 16C14 16 14.5 17 16 17C17.5 17 18 16 18 16" stroke="#3B82F6" stroke-width="1.5" stroke-linecap="round"/>
  <path d="M16 20L14 24L16 26L18 24L16 20Z" fill="white" opacity="0.8"/>
  <defs>
    <linearGradient id="gradient" x1="0" y1="0" x2="32" y2="32" gradientUnits="userSpaceOnUse">
      <stop stop-color="#3B82F6"/>
      <stop offset="1" stop-color="#06B6D4"/>
    </linearGradient>
  </defs>
</svg>
